<svg width="32" height="32" viewBox="0 0 32 32" fill="none" xmlns="http://www.w3.org/2000/svg">
<rect width="32" height="32" rx="8" fill="#303030"/>
<path fill-rule="evenodd" clip-rule="evenodd" d="M13.252 20.4239L10.8061 20.1427C8.95144 19.9295 8.42542 17.4844 10.0284 16.5274L10.0933 16.4886C10.966 15.9676 11.5005 15.0261 11.5005 14.0097V13.5C11.5005 11.0147 13.5152 9 16.0005 9C18.4857 9 20.5005 11.0147 20.5005 13.5V14.0097C20.5005 15.0261 21.0349 15.9676 21.9076 16.4886L21.9725 16.5274C23.5755 17.4844 23.0495 19.9295 21.1948 20.1427L18.652 20.435V20.8C18.652 22.2912 17.4432 23.5 15.952 23.5C14.4609 23.5 13.252 22.2912 13.252 20.8V20.4239ZM17.152 20.5H14.752V20.8C14.752 21.4627 15.2893 22 15.952 22C16.6148 22 17.152 21.4627 17.152 20.8V20.5ZM14.0005 19H18.0005L21.0235 18.6525C21.453 18.6032 21.5748 18.0369 21.2036 17.8153L21.1387 17.7766C21.0591 17.7291 20.9815 17.6793 20.9057 17.6273C20.7506 17.521 20.6036 17.4055 20.4651 17.2818C20.4405 17.2598 20.4162 17.2377 20.3922 17.2152C19.5144 16.395 19.0005 15.2383 19.0005 14.0097V13.5C19.0005 11.8431 17.6573 10.5 16.0005 10.5C14.3436 10.5 13.0005 11.8431 13.0005 13.5V14.0097C13.0005 15.2383 12.4865 16.395 11.6087 17.2152C11.5847 17.2377 11.5604 17.2598 11.5358 17.2818C11.3973 17.4055 11.2503 17.521 11.0952 17.6273C11.0195 17.6793 10.9418 17.7291 10.8622 17.7766L10.7973 17.8153C10.4261 18.0369 10.5479 18.6032 10.9774 18.6525L14.0005 19Z" fill="#E3E3E3"/>
</svg>
